<svg width="33" height="49" viewBox="0 0 33 49" fill="none" xmlns="http://www.w3.org/2000/svg">
<g clip-path="url(#clip0_206_5348)">
<path d="M16.1728 18.9853L0.205097 10.836C0.117913 10.7912 0.0447459 10.7233 -0.00634579 10.6395C-0.0574375 10.5558 -0.0844727 10.4595 -0.0844727 10.3613C-0.0844727 10.2632 -0.0574375 10.1669 -0.00634579 10.0832C0.0447459 9.99943 0.117913 9.93143 0.205097 9.88667L16.1728 1.68401C16.3242 1.60545 16.4921 1.56445 16.6625 1.56445C16.8329 1.56445 17.0009 1.60545 17.1522 1.68401L33.1199 9.88667C33.2071 9.93143 33.2803 9.99943 33.3314 10.0832C33.3825 10.1669 33.4095 10.2632 33.4095 10.3613C33.4095 10.4595 33.3825 10.5558 33.3314 10.6395C33.2803 10.7233 33.2071 10.7912 33.1199 10.836L17.1522 18.9853C17.0009 19.0639 16.8329 19.1049 16.6625 19.1049C16.4921 19.1049 16.3242 19.0639 16.1728 18.9853Z" fill="#656769" stroke="#45413C" stroke-width="0.5" stroke-linecap="round" stroke-linejoin="round"/>
<path d="M-0.050293 10.3564V18.8364" stroke="#45413C" stroke-width="0.5" stroke-linecap="round" stroke-linejoin="round"/>
<path d="M0.971427 18.8249C0.981668 18.6787 0.961719 18.5319 0.912827 18.3938C0.863935 18.2556 0.787148 18.129 0.687259 18.0219C0.58737 17.9148 0.466523 17.8295 0.332261 17.7713C0.197998 17.7131 0.0532032 17.6832 -0.0930886 17.6836C-0.23938 17.6832 -0.384176 17.7131 -0.518439 17.7713C-0.652701 17.8295 -0.773548 17.9148 -0.873437 18.0219C-0.973326 18.129 -1.05011 18.2556 -1.09901 18.3938C-1.1479 18.5319 -1.16785 18.6787 -1.15761 18.8249L-1.35986 22.7609H1.17369L0.971427 18.8249Z" fill="#FFE500" stroke="#45413C" stroke-width="0.5" stroke-linecap="round" stroke-linejoin="round"/>
<path d="M24.6782 36.8621L16.6517 33.8008L8.62527 36.8621C7.26424 37.3825 6.09288 38.3046 5.26605 39.5063C4.43923 40.7081 3.99588 42.1331 3.99463 43.5928V48.4994H29.3088V43.5928C29.3076 42.1331 28.8642 40.7081 28.0374 39.5063C27.2106 38.3046 26.0392 37.3825 24.6782 36.8621Z" fill="#656769"/>
<path d="M24.6782 36.8621L16.6517 33.8008L8.62527 36.8621C7.26424 37.3825 6.09288 38.3046 5.26605 39.5064C4.43923 40.7081 3.99588 42.1331 3.99463 43.5928V46.7928C3.99588 45.3331 4.43923 43.9081 5.26605 42.7064C6.09288 41.5046 7.26424 40.5825 8.62527 40.0621L16.6517 36.9901L24.6782 40.0515C26.0392 40.5718 27.2106 41.4939 28.0374 42.6957C28.8642 43.8975 29.3076 45.3224 29.3088 46.7821V43.5821C29.3054 42.1242 28.8611 40.7016 28.0344 39.502C27.2077 38.3023 26.0375 37.3819 24.6782 36.8621Z" fill="#525252"/>
<path d="M24.6782 36.8621L16.6517 33.8008L8.62527 36.8621C7.26424 37.3825 6.09288 38.3046 5.26605 39.5063C4.43923 40.7081 3.99588 42.1331 3.99463 43.5928V48.4994H29.3088V43.5928C29.3076 42.1331 28.8642 40.7081 28.0374 39.5063C27.2106 38.3046 26.0392 37.3825 24.6782 36.8621V36.8621Z" stroke="#45413C" stroke-width="0.5" stroke-linecap="round" stroke-linejoin="round"/>
<path d="M16.6516 37.9508C16.6516 37.9508 13.9478 36.7668 13.9478 35.2414V32.2014C13.9464 31.8448 14.0153 31.4913 14.1505 31.1614C14.2858 30.8314 14.4847 30.5315 14.7359 30.2788C14.9872 30.026 15.2857 29.8255 15.6145 29.6887C15.9432 29.5519 16.2957 29.4814 16.6516 29.4814C17.0076 29.4814 17.3601 29.5519 17.6888 29.6887C18.0176 29.8255 18.3161 30.026 18.5673 30.2788C18.8186 30.5315 19.0175 30.8314 19.1528 31.1614C19.288 31.4913 19.3569 31.8448 19.3555 32.2014V35.2414C19.3555 36.7668 16.6516 37.9508 16.6516 37.9508Z" fill="#FFE500"/>
<path d="M16.6516 29.4814C15.9345 29.4814 15.2468 29.7669 14.7397 30.275C14.2326 30.7831 13.9478 31.4722 13.9478 32.1908V32.8308C13.9478 33.5493 14.2326 34.2385 14.7397 34.7466C15.2468 35.2547 15.9345 35.5401 16.6516 35.5401C17.3687 35.5401 18.0565 35.2547 18.5636 34.7466C19.0706 34.2385 19.3555 33.5493 19.3555 32.8308V32.2014C19.3569 31.8448 19.288 31.4913 19.1527 31.1614C19.0175 30.8314 18.8185 30.5315 18.5673 30.2788C18.3161 30.026 18.0176 29.8255 17.6888 29.6887C17.3601 29.5519 17.0076 29.4814 16.6516 29.4814Z" fill="#EBCB00"/>
<path d="M16.6516 37.9508C16.6516 37.9508 13.9478 36.7668 13.9478 35.2414V32.2014C13.9464 31.8448 14.0153 31.4913 14.1505 31.1614C14.2858 30.8314 14.4847 30.5315 14.7359 30.2788C14.9872 30.026 15.2857 29.8255 15.6145 29.6887C15.9432 29.5519 16.2957 29.4814 16.6516 29.4814V29.4814C17.0076 29.4814 17.3601 29.5519 17.6888 29.6887C18.0176 29.8255 18.3161 30.026 18.5673 30.2788C18.8186 30.5315 19.0175 30.8314 19.1528 31.1614C19.288 31.4913 19.3569 31.8448 19.3555 32.2014V35.2414C19.3555 36.7668 16.6516 37.9508 16.6516 37.9508Z" stroke="#45413C" stroke-width="0.5" stroke-linecap="round" stroke-linejoin="round"/>
<path d="M5.42139 39.2734L9.26429 48.5001" stroke="#45413C" stroke-width="0.5" stroke-linecap="round" stroke-linejoin="round"/>
<path d="M27.8825 39.2734L24.0396 48.5001" stroke="#45413C" stroke-width="0.5" stroke-linecap="round" stroke-linejoin="round"/>
<path d="M12.9683 43.6787L13.7454 48.5" stroke="#45413C" stroke-width="0.5" stroke-linecap="round" stroke-linejoin="round"/>
<path d="M20.3347 43.6787L19.5576 48.5" stroke="#45413C" stroke-width="0.5" stroke-linecap="round" stroke-linejoin="round"/>
<path opacity="0.15" d="M0.684082 49.0336C0.684082 49.4579 2.36639 49.8649 5.36093 50.165C8.35546 50.465 12.4169 50.6336 16.6518 50.6336C20.8867 50.6336 24.9482 50.465 27.9427 50.165C30.9373 49.8649 32.6196 49.4579 32.6196 49.0336C32.6196 48.6092 30.9373 48.2023 27.9427 47.9022C24.9482 47.6022 20.8867 47.4336 16.6518 47.4336C12.4169 47.4336 8.35546 47.6022 5.36093 47.9022C2.36639 48.2023 0.684082 48.6092 0.684082 49.0336Z" fill="#45413C"/>
<path d="M16.6518 7.87109C19.4242 7.87109 22.0831 8.97467 24.0436 10.9391C26.004 12.9034 27.1053 15.5677 27.1053 18.3458V23.8284H6.19824V18.3458C6.19824 15.5677 7.29959 12.9034 9.26002 10.9391C11.2204 8.97467 13.8793 7.87109 16.6518 7.87109Z" fill="#724F3D" stroke="#45413C" stroke-width="0.5" stroke-linecap="round" stroke-linejoin="round"/>
<path d="M28.223 23.0279C28.1712 22.6363 28.0021 22.2695 27.7379 21.9762C27.4737 21.6829 27.1269 21.4769 26.7433 21.3853L26.1152 21.2146C25.6524 21.0836 25.2455 20.8039 24.9569 20.4184C24.6684 20.0329 24.5143 19.5631 24.5184 19.0813V16.9053C24.5173 16.4654 24.3718 16.0381 24.1044 15.6892C23.837 15.3404 23.4626 15.0893 23.0388 14.9746C21.0088 15.7866 18.8369 16.1819 16.6517 16.1373C14.4664 16.1819 12.2945 15.7866 10.2646 14.9746C9.83877 15.0873 9.46195 15.3375 9.19251 15.6866C8.92306 16.0356 8.77605 16.464 8.77425 16.9053V19.1026C8.77835 19.5844 8.62427 20.0543 8.33575 20.4397C8.04722 20.8252 7.64024 21.105 7.17747 21.2359L6.54941 21.4066C6.16584 21.4982 5.81903 21.7043 5.55483 21.9976C5.29063 22.2909 5.12148 22.6576 5.06973 23.0493C5.04128 23.3193 5.07 23.5923 5.154 23.8505C5.23801 24.1086 5.37542 24.3461 5.55725 24.5475C5.73909 24.7488 5.96126 24.9094 6.20927 25.0189C6.45727 25.1283 6.72552 25.1841 6.99651 25.1826H7.1136C7.36269 27.5406 8.47383 29.7227 10.2329 31.3086C11.9921 32.8946 14.2747 33.7721 16.641 33.7721C19.0074 33.7721 21.29 32.8946 23.0491 31.3086C24.8082 29.7227 25.9194 27.5406 26.1684 25.1826H26.2855C26.5594 25.186 26.8309 25.1308 27.0818 25.0208C27.3327 24.9107 27.5573 24.7483 27.7407 24.5444C27.924 24.3405 28.0619 24.0998 28.145 23.8383C28.2282 23.5768 28.2548 23.3005 28.223 23.0279Z" fill="#FFE500" stroke="#45413C" stroke-width="0.5" stroke-linecap="round" stroke-linejoin="round"/>
<path d="M10.8712 22.8038C10.8712 22.9663 10.9192 23.1251 11.0093 23.2601C11.0994 23.3952 11.2274 23.5005 11.3772 23.5626C11.5269 23.6248 11.6918 23.6411 11.8508 23.6094C12.0098 23.5777 12.1558 23.4995 12.2704 23.3846C12.3851 23.2697 12.4631 23.1234 12.4948 22.9641C12.5264 22.8047 12.5102 22.6396 12.4481 22.4895C12.3861 22.3394 12.281 22.2112 12.1462 22.1209C12.0114 22.0307 11.853 21.9825 11.6908 21.9825C11.5828 21.9811 11.4756 22.0013 11.3755 22.0421C11.2754 22.0829 11.1845 22.1433 11.1081 22.2199C11.0317 22.2964 10.9713 22.3875 10.9306 22.4878C10.89 22.5881 10.8697 22.6956 10.8712 22.8038Z" fill="#45413C" stroke="#45413C" stroke-width="0.5" stroke-linecap="round" stroke-linejoin="round"/>
<path d="M22.4323 22.8038C22.4323 22.9663 22.3843 23.1251 22.2942 23.2601C22.2041 23.3952 22.0761 23.5005 21.9263 23.5626C21.7765 23.6248 21.6117 23.6411 21.4527 23.6094C21.2937 23.5777 21.1477 23.4995 21.033 23.3846C20.9184 23.2697 20.8403 23.1234 20.8087 22.9641C20.7771 22.8047 20.7933 22.6396 20.8554 22.4895C20.9174 22.3394 21.0225 22.2112 21.1573 22.1209C21.2921 22.0307 21.4505 21.9825 21.6126 21.9825C21.7207 21.9811 21.8279 22.0013 21.928 22.0421C22.0281 22.0829 22.119 22.1433 22.1954 22.2199C22.2718 22.2964 22.3322 22.3875 22.3728 22.4878C22.4135 22.5881 22.4338 22.6956 22.4323 22.8038Z" fill="#45413C" stroke="#45413C" stroke-width="0.5" stroke-linecap="round" stroke-linejoin="round"/>
<path d="M13.6287 27.8076C13.5614 27.8091 13.4951 27.8251 13.4345 27.8545C13.3739 27.884 13.3203 27.9262 13.2774 27.9783C13.2329 28.0285 13.2002 28.0882 13.1818 28.1528C13.1633 28.2174 13.1596 28.2854 13.171 28.3516C13.3147 29.1721 13.7425 29.9156 14.3792 30.4513C15.0158 30.987 15.8206 31.2807 16.652 31.2807C17.4833 31.2807 18.2881 30.987 18.9247 30.4513C19.5614 29.9156 19.9892 29.1721 20.1329 28.3516C20.1443 28.2854 20.1406 28.2174 20.1222 28.1528C20.1037 28.0882 20.071 28.0285 20.0265 27.9783C19.9836 27.9262 19.93 27.884 19.8694 27.8545C19.8088 27.8251 19.7425 27.8091 19.6752 27.8076H13.6287Z" fill="#FF6242"/>
<path d="M16.6518 29.3001C15.6907 29.2625 14.7452 29.552 13.9692 30.1215C14.3047 30.4958 14.715 30.7951 15.1735 31.0001C15.632 31.205 16.1285 31.3109 16.6305 31.3109C17.1326 31.3109 17.629 31.205 18.0875 31.0001C18.5461 30.7951 18.9564 30.4958 19.2918 30.1215C18.5275 29.5611 17.5985 29.2721 16.6518 29.3001Z" fill="#FFA694"/>
<path d="M13.6287 27.8076C13.5614 27.8091 13.4951 27.8251 13.4345 27.8545C13.3739 27.884 13.3203 27.9262 13.2774 27.9783C13.2329 28.0285 13.2002 28.0882 13.1818 28.1528C13.1633 28.2174 13.1596 28.2854 13.171 28.3516C13.3147 29.1721 13.7425 29.9156 14.3792 30.4513C15.0158 30.987 15.8206 31.2807 16.652 31.2807C17.4833 31.2807 18.2881 30.987 18.9247 30.4513C19.5614 29.9156 19.9892 29.1721 20.1329 28.3516C20.1443 28.2854 20.1406 28.2174 20.1222 28.1528C20.1037 28.0882 20.071 28.0285 20.0265 27.9783C19.9836 27.9262 19.93 27.884 19.8694 27.8545C19.8088 27.8251 19.7425 27.8091 19.6752 27.8076H13.6287Z" stroke="#45413C" stroke-width="0.5" stroke-linecap="round" stroke-linejoin="round"/>
<path d="M9.26416 26.3021C9.26416 26.4718 9.37632 26.6346 9.57595 26.7547C9.77559 26.8747 10.0463 26.9421 10.3287 26.9421C10.611 26.9421 10.8818 26.8747 11.0814 26.7547C11.281 26.6346 11.3932 26.4718 11.3932 26.3021C11.3932 26.1324 11.281 25.9696 11.0814 25.8496C10.8818 25.7295 10.611 25.6621 10.3287 25.6621C10.0463 25.6621 9.77559 25.7295 9.57595 25.8496C9.37632 25.9696 9.26416 26.1324 9.26416 26.3021Z" fill="#FFAA54"/>
<path d="M21.9102 26.3021C21.9102 26.4718 22.0223 26.6346 22.2219 26.7547C22.4216 26.8747 22.6923 26.9421 22.9747 26.9421C23.257 26.9421 23.5278 26.8747 23.7274 26.7547C23.927 26.6346 24.0392 26.4718 24.0392 26.3021C24.0392 26.1324 23.927 25.9696 23.7274 25.8496C23.5278 25.7295 23.257 25.6621 22.9747 25.6621C22.6923 25.6621 22.4216 25.7295 22.2219 25.8496C22.0223 25.9696 21.9102 26.1324 21.9102 26.3021Z" fill="#FFAA54"/>
<path d="M6.73043 10.0995C6.73043 8.79819 10.882 7.74219 16.6517 7.74219C22.4214 7.74219 26.573 8.80885 26.573 10.0995L27.6375 19.2622C27.6375 17.8969 22.7301 16.7875 16.673 16.7875C10.6159 16.7875 5.7085 17.8542 5.7085 19.2622L6.73043 10.0995Z" fill="#656769"/>
<path d="M16.6519 11.2409C21.5699 11.2409 25.4022 11.8809 26.8819 12.7662L26.5732 10.0995C26.5732 8.79819 22.4216 7.74219 16.6519 7.74219C10.8822 7.74219 6.73058 8.80885 6.73058 10.0995L6.42188 12.7982C7.90155 11.8809 11.7338 11.2409 16.6519 11.2409Z" fill="#525252"/>
<path d="M6.73043 10.0995C6.73043 8.79819 10.882 7.74219 16.6517 7.74219C22.4214 7.74219 26.573 8.80885 26.573 10.0995L27.6375 19.2622C27.6375 17.8969 22.7301 16.7875 16.673 16.7875C10.6159 16.7875 5.7085 17.8542 5.7085 19.2622L6.73043 10.0995Z" stroke="#45413C" stroke-width="0.5" stroke-linecap="round" stroke-linejoin="round"/>
</g>
<defs>
<clipPath id="clip0_206_5348">
<rect y="0.5" width="33" height="48" rx="10" fill="white"/>
</clipPath>
</defs>
</svg>
