<svg width="31" height="43" viewBox="0 0 31 43" fill="none" xmlns="http://www.w3.org/2000/svg">
<path opacity="0.15" d="M0.17334 42.4631C0.17334 42.8907 1.74805 43.3009 4.55105 43.6033C7.35405 43.9057 11.1557 44.0756 15.1198 44.0756C19.0838 44.0756 22.8855 43.9057 25.6885 43.6033C28.4915 43.3009 30.0662 42.8907 30.0662 42.4631C30.0662 42.0354 28.4915 41.6253 25.6885 41.3229C22.8855 41.0205 19.0838 40.8506 15.1198 40.8506C11.1557 40.8506 7.35405 41.0205 4.55105 41.3229C1.74805 41.6253 0.17334 42.0354 0.17334 42.4631Z" fill="#45413C"/>
<path d="M15.1201 27.1113C18.6085 27.1113 21.954 28.4568 24.4206 30.8519C26.8873 33.2469 28.273 36.4952 28.273 39.8823V41.9248H1.96729V39.8823C1.96729 36.4952 3.35303 33.2469 5.81967 30.8519C8.28631 28.4568 11.6318 27.1113 15.1201 27.1113Z" fill="#00B8F0"/>
<path d="M15.1201 27.1113C11.6318 27.1113 8.28631 28.4568 5.81967 30.8519C3.35303 33.2469 1.96729 36.4952 1.96729 39.8823V41.9248H2.04478C2.4018 38.8003 3.93318 35.9134 6.34572 33.8169C8.75826 31.7203 11.8824 30.5614 15.1201 30.5621C18.3578 30.5614 21.482 31.7203 23.8946 33.8169C26.3071 35.9134 27.8385 38.8003 28.1955 41.9248H28.273V39.8823C28.273 36.4952 26.8873 33.2469 24.4206 30.8519C21.954 28.4568 18.6085 27.1113 15.1201 27.1113Z" fill="#009FD9"/>
<path d="M15.1201 27.1113C18.6085 27.1113 21.954 28.4568 24.4206 30.8519C26.8873 33.2469 28.273 36.4952 28.273 39.8823V41.9248H1.96729V39.8823C1.96729 36.4952 3.35303 33.2469 5.81967 30.8519C8.28631 28.4568 11.6318 27.1113 15.1201 27.1113V27.1113Z" stroke="#45413C" stroke-width="0.5" stroke-linecap="round" stroke-linejoin="round"/>
<path d="M7.43604 41.9247V39.334" stroke="#45413C" stroke-width="0.5" stroke-linecap="round" stroke-linejoin="round"/>
<path d="M22.8032 41.9247V39.334" stroke="#45413C" stroke-width="0.5" stroke-linecap="round" stroke-linejoin="round"/>
<path d="M12.3076 22.7578H17.943V31.2933H12.3076V22.7578Z" fill="#EBCB00" stroke="#45413C" stroke-width="0.5" stroke-linecap="round" stroke-linejoin="round"/>
<path d="M15.1197 0.978516C14.2084 0.979344 13.3008 1.0913 12.4183 1.31177C10.359 1.76327 7.6797 2.51577 5.25506 2.06427C5.16059 2.67062 5.19433 3.28931 5.35423 3.88259C5.51412 4.47587 5.79681 5.03131 6.18506 5.51502C4.92187 7.28279 4.2458 9.38342 4.24756 11.535V17.0605H25.9918V11.535C25.9918 8.73526 24.8464 6.05017 22.8075 4.07044C20.7685 2.09071 18.0032 0.978516 15.1197 0.978516Z" fill="#724F3D"/>
<path d="M15.1197 0.978516C14.2084 0.979344 13.3008 1.0913 12.4183 1.31177C10.359 1.76327 7.67972 2.51577 5.25508 2.06427C5.10518 3.19189 5.37194 4.3346 6.00794 5.28927C8.17663 5.32208 10.3379 5.03574 12.4183 4.44002C14.0241 4.03787 15.7034 3.99811 17.3275 4.32379C18.9516 4.64947 20.4773 5.33194 21.7877 6.31886C23.0981 7.30579 24.1583 8.57097 24.887 10.0174C25.6158 11.4638 25.9937 13.053 25.9919 14.6633V11.535C25.9919 8.73526 24.8464 6.05017 22.8075 4.07044C20.7686 2.09071 18.0032 0.978516 15.1197 0.978516Z" fill="#A86C4D"/>
<path d="M15.1197 0.978516C14.2084 0.979344 13.3008 1.0913 12.4183 1.31177C10.359 1.76327 7.6797 2.51577 5.25506 2.06427C5.16059 2.67062 5.19433 3.28931 5.35423 3.88259C5.51412 4.47587 5.79681 5.03131 6.18506 5.51502C4.92187 7.28279 4.2458 9.38342 4.24756 11.535V17.0605H25.9918V11.535C25.9918 8.73526 24.8464 6.05017 22.8075 4.07044C20.7685 2.09071 18.0032 0.978516 15.1197 0.978516V0.978516Z" stroke="#45413C" stroke-width="0.5" stroke-linecap="round" stroke-linejoin="round"/>
<path d="M27.1544 16.2539C27.1006 15.8592 26.9247 15.4896 26.6499 15.194C26.3751 14.8984 26.0144 14.6907 25.6155 14.5984L24.9623 14.4264C24.481 14.2945 24.0577 14.0125 23.7576 13.624C23.4575 13.2355 23.2973 12.762 23.3016 12.2764V10.0834C23.3003 9.64013 23.149 9.2095 22.871 8.8579C22.5929 8.5063 22.2034 8.25324 21.7626 8.1377C19.6514 8.956 17.3925 9.35446 15.1198 9.30945C12.847 9.35446 10.5881 8.956 8.47692 8.1377C8.03407 8.25124 7.64216 8.50345 7.36193 8.85523C7.0817 9.20701 6.9288 9.63872 6.92692 10.0834V12.2979C6.93118 12.7835 6.77094 13.257 6.47086 13.6455C6.17078 14.034 5.74751 14.316 5.26621 14.4479L4.61299 14.6199C4.21406 14.7122 3.85337 14.9199 3.57859 15.2155C3.30381 15.5111 3.12788 15.8807 3.07406 16.2754C3.04447 16.5476 3.07434 16.8227 3.16171 17.0829C3.24908 17.3431 3.39199 17.5824 3.58111 17.7853C3.77023 17.9882 4.0013 18.1501 4.25923 18.2604C4.51716 18.3707 4.79616 18.427 5.07799 18.4254H5.19978C5.45884 20.8018 6.61448 23.001 8.44403 24.5993C10.2736 26.1977 12.6476 27.082 15.1087 27.082C17.5698 27.082 19.9438 26.1977 21.7734 24.5993C23.6029 23.001 24.7586 20.8018 25.0176 18.4254H25.1394C25.4243 18.4288 25.7066 18.3732 25.9676 18.2623C26.2285 18.1514 26.4621 17.9878 26.6528 17.7823C26.8435 17.5768 26.9869 17.3342 27.0734 17.0706C27.1599 16.8071 27.1875 16.5287 27.1544 16.2539Z" fill="#FFE500" stroke="#45413C" stroke-width="0.5" stroke-linecap="round" stroke-linejoin="round"/>
<path d="M7.43604 19.5542C7.43604 19.7252 7.55268 19.8893 7.76031 20.0103C7.96794 20.1312 8.24955 20.1992 8.54318 20.1992C8.83681 20.1992 9.11842 20.1312 9.32605 20.0103C9.53368 19.8893 9.65032 19.7252 9.65032 19.5542C9.65032 19.3831 9.53368 19.2191 9.32605 19.0981C9.11842 18.9771 8.83681 18.9092 8.54318 18.9092C8.24955 18.9092 7.96794 18.9771 7.76031 19.0981C7.55268 19.2191 7.43604 19.3831 7.43604 19.5542Z" fill="#FFAA54"/>
<path d="M21.7624 23.6499C21.9698 23.0932 22.0929 22.5102 22.1278 21.9192C22.1278 21.0699 21.7624 18.9737 22.4488 17.8557C22.665 17.4853 22.9016 17.1265 23.1574 16.7807C23.2028 16.7215 23.2356 16.6542 23.254 16.5826C23.2725 16.5111 23.2761 16.4366 23.2648 16.3637C23.2535 16.2907 23.2274 16.2207 23.1881 16.1576C23.1487 16.0945 23.0969 16.0395 23.0356 15.9959C22.7645 15.799 22.4322 15.698 22.0939 15.7098C21.7556 15.7215 21.4315 15.8452 21.1756 16.0604C20.6985 16.4691 20.3687 17.0154 20.2345 17.6192L20.1017 18.2749L18.142 12.4269C18.0703 12.2086 17.9166 12.0244 17.7115 11.9109C17.5065 11.7974 17.265 11.7629 17.0349 11.8142C16.9071 11.839 16.786 11.8892 16.6793 11.9618C16.5726 12.0344 16.4825 12.1277 16.4149 12.2358C16.3472 12.344 16.3034 12.4646 16.2863 12.59C16.2691 12.7154 16.279 12.8429 16.3153 12.9644L17.5442 17.0602L15.3963 12.5667C15.3366 12.4484 15.2529 12.343 15.1502 12.2569C15.0475 12.1707 14.9279 12.1056 14.7987 12.0655C14.6694 12.0253 14.5332 12.0109 14.3981 12.0232C14.2629 12.0354 14.1318 12.074 14.0124 12.1367C13.793 12.2495 13.6242 12.4369 13.5384 12.6631C13.4526 12.8892 13.4558 13.1382 13.5474 13.3622L15.352 17.9632L13.3038 14.2867C13.2482 14.1854 13.1723 14.096 13.0806 14.0236C12.9888 13.9512 12.8831 13.8975 12.7696 13.8654C12.6561 13.8333 12.5371 13.8237 12.4197 13.8369C12.3023 13.8502 12.1888 13.8862 12.086 13.9427C11.8953 14.0511 11.7525 14.2241 11.6851 14.4284C11.6177 14.6328 11.6303 14.8541 11.7206 15.0499L13.5917 18.6834L12.1635 16.6517C12.0844 16.5376 11.9802 16.442 11.8583 16.3719C11.7364 16.3019 11.5999 16.2591 11.4589 16.2467C11.3178 16.2344 11.1756 16.2527 11.0428 16.3005C10.91 16.3482 10.7898 16.4241 10.691 16.5227C10.5423 16.6565 10.4408 16.8324 10.401 17.0254C10.3613 17.2184 10.3852 17.4187 10.4695 17.5977C11.5737 19.9896 12.8233 22.3157 14.2117 24.5637C15.1528 25.6387 15.5624 25.8322 16.3374 25.9289C17.5663 26.0794 21.1535 24.5852 21.7624 23.6499Z" fill="#FFE500" stroke="#45413C" stroke-width="0.5" stroke-linecap="round" stroke-linejoin="round"/>
<path d="M20.5006 41.9249L15.2417 27.6274C15.1498 27.3755 15.1579 27.0994 15.2644 26.8529C15.3708 26.6065 15.568 26.4073 15.8174 26.2944L21.187 23.8219C21.3199 23.7606 21.4639 23.7256 21.6108 23.7189C21.7577 23.7123 21.9045 23.7341 22.0426 23.7832C22.1807 23.8322 22.3074 23.9075 22.4152 24.0045C22.523 24.1016 22.6099 24.2186 22.6706 24.3486L30.7638 41.9249H20.5006Z" fill="#00B8F0"/>
<path d="M15.9281 29.4871L20.2128 27.5091C20.3468 27.4465 20.4925 27.4107 20.6411 27.4039C20.7897 27.3971 20.9382 27.4194 21.0777 27.4696C21.2172 27.5198 21.3449 27.5967 21.4531 27.6959C21.5612 27.795 21.6478 27.9143 21.7074 28.0466L28.0956 41.9249H30.7638L22.6706 24.3486C22.6099 24.2186 22.523 24.1016 22.4152 24.0045C22.3074 23.9075 22.1807 23.8322 22.0426 23.7832C21.9045 23.7341 21.7577 23.7123 21.6108 23.7189C21.4639 23.7256 21.3199 23.7606 21.187 23.8219L15.8174 26.2944C15.568 26.4073 15.3708 26.6065 15.2644 26.8529C15.1579 27.0994 15.1498 27.3755 15.2417 27.6274L15.9281 29.4871Z" fill="#4ACFFF"/>
<path d="M20.5006 41.9249L15.2417 27.6274C15.1498 27.3755 15.1579 27.0994 15.2644 26.8529C15.3708 26.6065 15.568 26.4073 15.8174 26.2944L21.187 23.8219C21.3199 23.7606 21.4639 23.7256 21.6108 23.7189C21.7577 23.7123 21.9045 23.7341 22.0426 23.7832C22.1807 23.8322 22.3074 23.9075 22.4152 24.0045C22.523 24.1016 22.6099 24.2186 22.6706 24.3486L30.7638 41.9249H20.5006Z" stroke="#45413C" stroke-width="0.5" stroke-linecap="round" stroke-linejoin="round"/>
</svg>
