<svg width="44" height="44" viewBox="0 0 44 44" fill="none" xmlns="http://www.w3.org/2000/svg">
<path d="M32.449 0.779297C35.0649 0.779297 37.5737 1.81847 39.4234 3.6682C41.2731 5.51793 42.3123 8.02671 42.3123 10.6426V23.476C42.3111 23.698 42.2443 23.9148 42.1204 24.0991C41.9965 24.2834 41.8209 24.4269 41.6156 24.5118C35.7316 26.868 29.1663 26.868 23.2823 24.5118C23.0844 24.4281 22.9146 24.2895 22.7928 24.1125C22.671 23.9355 22.6023 23.7274 22.5948 23.5126V10.6793C22.59 9.38171 22.8412 8.09593 23.3342 6.89562C23.8271 5.69531 24.5521 4.60406 25.4675 3.6844C26.3829 2.76473 27.4707 2.03474 28.6688 1.53623C29.8668 1.03772 31.1514 0.780494 32.449 0.779297Z" fill="#A86C4D"/>
<path d="M34.2406 0.779297C31.1509 0.782168 28.1888 2.01155 26.0051 4.19728C23.8214 6.38302 22.5947 9.3463 22.5947 12.436V15.8701C22.5919 14.3384 22.8909 12.8212 23.4748 11.4052C24.0586 9.98912 24.9159 8.70202 25.9974 7.61744C27.079 6.53287 28.3637 5.67208 29.7781 5.08429C31.1925 4.49649 32.7089 4.19322 34.2406 4.1918C35.7732 4.19179 37.2907 4.49402 38.7064 5.08118C40.1221 5.66833 41.4081 6.52889 42.4908 7.61361C43.5735 8.69833 44.4316 9.98591 45.0162 11.4027C45.6007 12.8194 45.9001 14.3375 45.8972 15.8701V12.436C45.8972 9.34442 44.6691 6.3795 42.4831 4.19346C40.297 2.00741 37.3321 0.779297 34.2406 0.779297Z" fill="#DE926A"/>
<path d="M32.449 0.779297C35.0649 0.779297 37.5737 1.81847 39.4234 3.6682C41.2731 5.51793 42.3123 8.02671 42.3123 10.6426V23.476C42.3111 23.698 42.2443 23.9148 42.1204 24.0991C41.9965 24.2834 41.8209 24.4269 41.6156 24.5118V24.5118C35.7316 26.868 29.1663 26.868 23.2823 24.5118V24.5118C23.0844 24.4281 22.9146 24.2895 22.7928 24.1125C22.671 23.9355 22.6023 23.7274 22.5948 23.5126V10.6793C22.59 9.38171 22.8412 8.09593 23.3342 6.89562C23.8271 5.69531 24.5521 4.60406 25.4675 3.6844C26.3829 2.76473 27.4707 2.03474 28.6688 1.53623C29.8668 1.03772 31.1514 0.780494 32.449 0.779297V0.779297Z" stroke="#45413C" stroke-width="0.5" stroke-linecap="round" stroke-linejoin="round"/>
<path d="M32.4486 23.3662C33.863 23.3662 35.2636 23.6448 36.5704 24.1861C37.8772 24.7274 39.0645 25.5208 40.0647 26.5209C41.0649 27.5211 41.8582 28.7084 42.3995 30.0152C42.9408 31.322 43.2194 32.7226 43.2194 34.137V43.542H21.6777V34.137C21.6777 32.7226 21.9563 31.322 22.4976 30.0152C23.0389 28.7084 23.8323 27.5211 24.8324 26.5209C26.8524 24.501 29.592 23.3662 32.4486 23.3662Z" fill="#FF87AF"/>
<path d="M34.4069 23.3662C31.0309 23.3662 27.7932 24.7073 25.406 27.0945C23.0188 29.4817 21.6777 32.7194 21.6777 36.0954V39.9845C21.6777 36.6086 23.0188 33.3708 25.406 30.9837C27.7932 28.5965 31.0309 27.2554 34.4069 27.2554C37.7829 27.2554 41.0206 28.5965 43.4078 30.9837C45.795 33.3708 47.1361 36.6086 47.1361 39.9845V36.0954C47.1361 34.4238 46.8068 32.7685 46.1671 31.2241C45.5274 29.6798 44.5898 28.2765 43.4078 27.0945C42.2258 25.9125 40.8225 24.9749 39.2781 24.3352C37.7338 23.6955 36.0785 23.3662 34.4069 23.3662Z" fill="#FF6196"/>
<path d="M32.4486 23.3662C33.863 23.3662 35.2636 23.6448 36.5704 24.1861C37.8772 24.7274 39.0645 25.5208 40.0647 26.5209C41.0649 27.5211 41.8582 28.7084 42.3995 30.0152C42.9408 31.322 43.2194 32.7226 43.2194 34.137V43.542H21.6777V34.137C21.6777 32.7226 21.9563 31.322 22.4976 30.0152C23.0389 28.7084 23.8323 27.5211 24.8324 26.5209C26.8524 24.501 29.592 23.3662 32.4486 23.3662V23.3662Z" stroke="#45413C" stroke-width="0.5" stroke-linecap="round" stroke-linejoin="round"/>
<path d="M30.1387 19.6904H35.5878V28.1946H30.1387V19.6904Z" fill="#FFCEBF" stroke="#45413C" stroke-width="0.5" stroke-linecap="round" stroke-linejoin="round"/>
<path d="M40.6713 12.7052C39.5238 12.3766 38.465 11.794 37.5732 11.0006C36.6814 10.2072 35.9796 9.22337 35.5197 8.12191L34.9605 6.77441C32.7744 9.71928 29.5494 11.7218 25.9405 12.3752L24.2263 12.6777C23.8111 12.7088 23.423 12.8956 23.1398 13.2007C22.8566 13.5059 22.6992 13.9068 22.6992 14.3232C22.6992 14.7395 22.8566 15.1404 23.1398 15.4456C23.423 15.7508 23.8111 15.9376 24.2263 15.9686H24.3272C24.6674 17.8751 25.6675 19.6012 27.1524 20.8445C28.6372 22.0878 30.5122 22.7691 32.4488 22.7691C34.3855 22.7691 36.2604 22.0878 37.7452 20.8445C39.2301 19.6012 40.2302 17.8751 40.5705 15.9686H40.6713C41.0865 15.9376 41.4746 15.7508 41.7578 15.4456C42.041 15.1404 42.1984 14.7395 42.1984 14.3232C42.1984 13.9068 42.041 13.5059 41.7578 13.2007C41.4746 12.8956 41.0865 12.7088 40.6713 12.6777V12.7052Z" fill="#FFCEBF" stroke="#45413C" stroke-width="0.5" stroke-linecap="round" stroke-linejoin="round"/>
<path d="M27.5171 14.016C27.5195 14.2016 27.5949 14.3788 27.727 14.5092C27.8591 14.6396 28.0373 14.7127 28.2229 14.7127C28.4077 14.7127 28.5849 14.6393 28.7155 14.5086C28.8462 14.378 28.9196 14.2008 28.9196 14.016C28.9196 13.8312 28.8462 13.654 28.7155 13.5234C28.5849 13.3927 28.4077 13.3193 28.2229 13.3193C28.0373 13.3193 27.8591 13.3924 27.727 13.5228C27.5949 13.6532 27.5195 13.8304 27.5171 14.016Z" fill="#45413C" stroke="#45413C" stroke-width="0.5" stroke-linecap="round" stroke-linejoin="round"/>
<path d="M37.3805 14.016C37.3781 14.2016 37.3027 14.3788 37.1706 14.5092C37.0385 14.6396 36.8603 14.7127 36.6747 14.7127C36.4899 14.7127 36.3127 14.6393 36.1821 14.5086C36.0514 14.378 35.978 14.2008 35.978 14.016C35.978 13.8312 36.0514 13.654 36.1821 13.5234C36.3127 13.3927 36.4899 13.3193 36.6747 13.3193C36.8603 13.3193 37.0385 13.3924 37.1706 13.5228C37.3027 13.6532 37.3781 13.8304 37.3805 14.016Z" fill="#45413C" stroke="#45413C" stroke-width="0.5" stroke-linecap="round" stroke-linejoin="round"/>
<path d="M29.8728 18.2695C29.8149 18.2714 29.758 18.2854 29.7059 18.3107C29.6538 18.3359 29.6076 18.3719 29.5703 18.4162C29.5324 18.4597 29.5046 18.511 29.4888 18.5664C29.473 18.6219 29.4695 18.6801 29.4786 18.737C29.6017 19.4353 29.9669 20.0678 30.5101 20.5235C31.0532 20.9793 31.7396 21.2291 32.4486 21.2291C33.1576 21.2291 33.8439 20.9793 34.3871 20.5235C34.9302 20.0678 35.2955 19.4353 35.4186 18.737C35.4277 18.6801 35.4242 18.6219 35.4084 18.5664C35.3925 18.511 35.3647 18.4597 35.3269 18.4162C35.2896 18.3719 35.2434 18.3359 35.1913 18.3107C35.1392 18.2854 35.0823 18.2714 35.0244 18.2695H29.8728Z" fill="#FF6242"/>
<path d="M32.4487 21.2476C33.2356 21.2485 33.9919 20.9427 34.557 20.3951C33.9913 19.8485 33.2353 19.543 32.4487 19.543C31.662 19.543 30.9061 19.8485 30.3403 20.3951C30.9055 20.9427 31.6618 21.2485 32.4487 21.2476Z" fill="#FFA694"/>
<path d="M29.8728 18.2695C29.8149 18.2714 29.758 18.2854 29.7059 18.3107C29.6538 18.3359 29.6076 18.3719 29.5703 18.4162C29.5324 18.4597 29.5046 18.511 29.4888 18.5664C29.473 18.6219 29.4695 18.6801 29.4786 18.737C29.6017 19.4353 29.9669 20.0678 30.5101 20.5235C31.0532 20.9793 31.7396 21.2291 32.4486 21.2291C33.1576 21.2291 33.8439 20.9793 34.3871 20.5235C34.9302 20.0678 35.2955 19.4353 35.4186 18.737C35.4277 18.6801 35.4242 18.6219 35.4084 18.5664C35.3925 18.511 35.3647 18.4597 35.3269 18.4162C35.2896 18.3719 35.2434 18.3359 35.1913 18.3107C35.1392 18.2854 35.0823 18.2714 35.0244 18.2695H29.8728Z" stroke="#45413C" stroke-width="0.5" stroke-linecap="round" stroke-linejoin="round"/>
<path d="M38.7461 43.5414V33.6689" stroke="#45413C" stroke-width="0.5" stroke-linecap="round" stroke-linejoin="round"/>
<path d="M26.1514 16.9959C26.1514 17.1393 26.247 17.2769 26.4172 17.3783C26.5874 17.4798 26.8182 17.5367 27.0589 17.5367C27.2996 17.5367 27.5304 17.4798 27.7006 17.3783C27.8708 17.2769 27.9664 17.1393 27.9664 16.9959C27.9664 16.8525 27.8708 16.7149 27.7006 16.6135C27.5304 16.5121 27.2996 16.4551 27.0589 16.4551C26.8182 16.4551 26.5874 16.5121 26.4172 16.6135C26.247 16.7149 26.1514 16.8525 26.1514 16.9959Z" fill="#FFB59E"/>
<path d="M36.9312 16.9959C36.9312 17.1393 37.0268 17.2769 37.197 17.3783C37.3671 17.4798 37.598 17.5367 37.8387 17.5367C38.0793 17.5367 38.3102 17.4798 38.4804 17.3783C38.6505 17.2769 38.7462 17.1393 38.7462 16.9959C38.7462 16.8525 38.6505 16.7149 38.4804 16.6135C38.3102 16.5121 38.0793 16.4551 37.8387 16.4551C37.598 16.4551 37.3671 16.5121 37.197 16.6135C37.0268 16.7149 36.9312 16.8525 36.9312 16.9959Z" fill="#FFB59E"/>
<path d="M10.9071 1.31938C10.1593 1.32218 9.41458 1.41451 8.68876 1.59438C7.01126 1.97938 4.82043 2.62104 2.83126 2.23604C2.75182 2.74813 2.77836 3.27107 2.90923 3.77248C3.0401 4.2739 3.27252 4.7431 3.59209 5.15104C2.55003 6.63912 1.99297 8.41272 1.99709 10.2294V14.886H19.8446V10.2294C19.8446 9.05698 19.6132 7.89611 19.1637 6.8133C18.7143 5.7305 18.0555 4.74704 17.2252 3.91931C16.3949 3.09158 15.4094 2.43585 14.3252 1.9897C13.2411 1.54355 12.0795 1.31576 10.9071 1.31938Z" fill="#A86C4D"/>
<path d="M10.9069 1.31938C10.1592 1.32218 9.41443 1.41451 8.68861 1.59438C7.01111 1.97938 4.82027 2.62104 2.83111 2.23604C2.69688 3.19681 2.91505 4.17368 3.44527 4.98604C5.22008 5.01878 6.98912 4.77445 8.68861 4.26188C9.41443 4.08201 10.1592 3.98968 10.9069 3.98688C12.0778 3.98326 13.2379 4.21045 14.3209 4.65545C15.4039 5.10046 16.3885 5.75455 17.2186 6.58034C18.0486 7.40613 18.7078 8.38742 19.1583 9.46811C19.6089 10.5488 19.842 11.7077 19.8444 12.8785V10.2294C19.8444 9.05698 19.6131 7.89611 19.1636 6.8133C18.7141 5.7305 18.0553 4.74704 17.225 3.91931C16.3948 3.09158 15.4093 2.43585 14.3251 1.9897C13.2409 1.54355 12.0793 1.31576 10.9069 1.31938Z" fill="#DE926A"/>
<path d="M10.9071 1.31938C10.1593 1.32218 9.41458 1.41451 8.68876 1.59438C7.01126 1.97938 4.82043 2.62104 2.83126 2.23604C2.75182 2.74813 2.77836 3.27107 2.90923 3.77248C3.0401 4.2739 3.27252 4.7431 3.59209 5.15104C2.55003 6.63912 1.99297 8.41272 1.99709 10.2294V14.886H19.8446V10.2294C19.8446 9.05698 19.6132 7.89611 19.1637 6.8133C18.7143 5.7305 18.0555 4.74704 17.2252 3.91931C16.3949 3.09158 15.4094 2.43585 14.3252 1.9897C13.2411 1.54355 12.0795 1.31576 10.9071 1.31938V1.31938Z" stroke="#45413C" stroke-width="0.5" stroke-linecap="round" stroke-linejoin="round"/>
<path d="M10.9071 23.3662C12.3215 23.3662 13.7221 23.6448 15.0289 24.1861C16.3357 24.7274 17.523 25.5208 18.5232 26.5209C19.5234 27.5211 20.3167 28.7084 20.858 30.0152C21.3993 31.322 21.6779 32.7226 21.6779 34.137V43.542H0.13623V34.137C0.13623 32.7226 0.414826 31.322 0.956111 30.0152C1.4974 28.7084 2.29077 27.5211 3.29093 26.5209C5.31086 24.501 8.05046 23.3662 10.9071 23.3662Z" fill="#00B8F0"/>
<path d="M10.9071 23.3662C8.05046 23.3662 5.31086 24.501 3.29093 26.5209C1.27101 28.5408 0.13623 31.2804 0.13623 34.137V37.4279C0.136231 34.5713 1.27101 31.8317 3.29093 29.8117C5.31086 27.7918 8.05046 26.657 10.9071 26.657C13.7637 26.657 16.5033 27.7918 18.5232 29.8117C20.5431 31.8317 21.6779 34.5713 21.6779 37.4279V34.137C21.6779 32.7226 21.3993 31.322 20.858 30.0152C20.3167 28.7084 19.5234 27.5211 18.5232 26.5209C17.523 25.5208 16.3357 24.7274 15.0289 24.1861C13.7221 23.6448 12.3215 23.3662 10.9071 23.3662Z" fill="#009FD9"/>
<path d="M10.9071 23.3662C12.3215 23.3662 13.7221 23.6448 15.0289 24.1861C16.3357 24.7274 17.523 25.5208 18.5232 26.5209C19.5234 27.5211 20.3167 28.7084 20.858 30.0152C21.3993 31.322 21.6779 32.7226 21.6779 34.137V43.542H0.13623V34.137C0.13623 32.7226 0.414826 31.322 0.956111 30.0152C1.4974 28.7084 2.29077 27.5211 3.29093 26.5209C5.31086 24.501 8.05046 23.3662 10.9071 23.3662V23.3662Z" stroke="#45413C" stroke-width="0.5" stroke-linecap="round" stroke-linejoin="round"/>
<path d="M8.59717 19.6904H13.208V26.8863H8.59717V19.6904Z" fill="#FFCEBF"/>
<path d="M8.59717 19.6904H13.208V25.0254H8.59717V19.6904Z" fill="#FFB59E"/>
<path d="M8.59717 19.6904H13.208V26.8863H8.59717V19.6904Z" stroke="#45413C" stroke-width="0.5" stroke-linecap="round" stroke-linejoin="round"/>
<path d="M20.7615 14.0807C20.6841 13.6877 20.4708 13.3346 20.159 13.0832C19.8472 12.8317 19.4569 12.6981 19.0565 12.7057C18.6724 12.7057 18.304 12.5531 18.0324 12.2814C17.7608 12.0098 17.6082 11.6414 17.6082 11.2573V9.00232C17.6123 8.62195 17.4892 8.25111 17.2583 7.94881C17.0274 7.6465 16.7021 7.43008 16.334 7.33398C14.6092 8.02234 12.7641 8.35893 10.9073 8.32398C9.05055 8.35893 7.20551 8.02234 5.48067 7.33398C5.12285 7.44027 4.8098 7.66105 4.58956 7.96242C4.36933 8.2638 4.25408 8.62912 4.2615 9.00232V11.2573C4.2615 11.4475 4.22404 11.6359 4.15126 11.8116C4.07847 11.9873 3.97179 12.147 3.8373 12.2814C3.70281 12.4159 3.54314 12.5226 3.36742 12.5954C3.1917 12.6682 3.00337 12.7057 2.81317 12.7057C2.41274 12.6981 2.02243 12.8317 1.71067 13.0832C1.39892 13.3346 1.18562 13.6877 1.10817 14.0807C1.06809 14.3164 1.08003 14.5581 1.14316 14.7888C1.2063 15.0195 1.3191 15.2336 1.47366 15.4161C1.62822 15.5986 1.82082 15.7451 2.03795 15.8454C2.25508 15.9456 2.49151 15.9972 2.73067 15.9965H2.8315C3.17177 17.903 4.1719 19.6291 5.65675 20.8724C7.1416 22.1157 9.01652 22.797 10.9532 22.797C12.8898 22.797 14.7647 22.1157 16.2496 20.8724C17.7344 19.6291 18.7346 17.903 19.0748 15.9965H19.1757C19.4117 15.9919 19.644 15.9365 19.8567 15.8339C20.0693 15.7313 20.2574 15.5841 20.4079 15.4022C20.5585 15.2203 20.668 15.0081 20.729 14.78C20.79 14.552 20.8011 14.3134 20.7615 14.0807Z" fill="#FFCEBF" stroke="#45413C" stroke-width="0.5" stroke-linecap="round" stroke-linejoin="round"/>
<path d="M5.97559 14.016C5.978 14.2016 6.05342 14.3788 6.18553 14.5092C6.31764 14.6396 6.4958 14.7127 6.68142 14.7127C6.86619 14.7127 7.04339 14.6393 7.17404 14.5086C7.30469 14.378 7.37809 14.2008 7.37809 14.016C7.37809 13.8312 7.30469 13.654 7.17404 13.5234C7.04339 13.3927 6.86619 13.3193 6.68142 13.3193C6.4958 13.3193 6.31764 13.3924 6.18553 13.5228C6.05342 13.6532 5.978 13.8304 5.97559 14.016Z" fill="#45413C" stroke="#45413C" stroke-width="0.5" stroke-linecap="round" stroke-linejoin="round"/>
<path d="M15.8385 14.016C15.8361 14.2016 15.7607 14.3788 15.6286 14.5092C15.4965 14.6396 15.3183 14.7127 15.1327 14.7127C14.9479 14.7127 14.7707 14.6393 14.6401 14.5086C14.5094 14.378 14.436 14.2008 14.436 14.016C14.436 13.8312 14.5094 13.654 14.6401 13.5234C14.7707 13.3927 14.9479 13.3193 15.1327 13.3193C15.3183 13.3193 15.4965 13.3924 15.6286 13.5228C15.7607 13.6532 15.8361 13.8304 15.8385 14.016Z" fill="#45413C" stroke="#45413C" stroke-width="0.5" stroke-linecap="round" stroke-linejoin="round"/>
<path d="M8.33125 18.2695C8.27336 18.2714 8.2165 18.2854 8.16438 18.3107C8.11226 18.3359 8.06605 18.3719 8.02875 18.4162C7.99094 18.4597 7.96313 18.511 7.94729 18.5664C7.93146 18.6219 7.92797 18.6801 7.93708 18.737C8.06023 19.4353 8.42544 20.0678 8.96858 20.5235C9.51172 20.9793 10.1981 21.2291 10.9071 21.2291C11.6161 21.2291 12.3024 20.9793 12.8456 20.5235C13.3887 20.0678 13.7539 19.4353 13.8771 18.737C13.8862 18.6801 13.8827 18.6219 13.8669 18.5664C13.851 18.511 13.8232 18.4597 13.7854 18.4162C13.7481 18.3719 13.7019 18.3359 13.6498 18.3107C13.5977 18.2854 13.5408 18.2714 13.4829 18.2695H8.33125Z" fill="#FF6242"/>
<path d="M10.9067 21.2476C11.6936 21.2485 12.4499 20.9427 13.015 20.3951C12.4493 19.8485 11.6934 19.543 10.9067 19.543C10.12 19.543 9.36407 19.8485 8.79834 20.3951C9.36348 20.9427 10.1198 21.2485 10.9067 21.2476Z" fill="#FFA694"/>
<path d="M8.33125 18.2695C8.27336 18.2714 8.2165 18.2854 8.16438 18.3107C8.11226 18.3359 8.06605 18.3719 8.02875 18.4162C7.99094 18.4597 7.96313 18.511 7.94729 18.5664C7.93146 18.6219 7.92797 18.6801 7.93708 18.737C8.06023 19.4353 8.42544 20.0678 8.96858 20.5235C9.51172 20.9793 10.1981 21.2291 10.9071 21.2291C11.6161 21.2291 12.3024 20.9793 12.8456 20.5235C13.3887 20.0678 13.7539 19.4353 13.8771 18.737C13.8862 18.6801 13.8827 18.6219 13.8669 18.5664C13.851 18.511 13.8232 18.4597 13.7854 18.4162C13.7481 18.3719 13.7019 18.3359 13.6498 18.3107C13.5977 18.2854 13.5408 18.2714 13.4829 18.2695H8.33125Z" stroke="#45413C" stroke-width="0.5" stroke-linecap="round" stroke-linejoin="round"/>
<path d="M4.60938 43.5414V33.6689" stroke="#45413C" stroke-width="0.5" stroke-linecap="round" stroke-linejoin="round"/>
<path d="M4.60938 16.9959C4.60938 17.1393 4.70499 17.2769 4.87518 17.3783C5.04536 17.4798 5.27619 17.5367 5.51687 17.5367C5.75756 17.5367 5.98839 17.4798 6.15857 17.3783C6.32876 17.2769 6.42438 17.1393 6.42438 16.9959C6.42438 16.8525 6.32876 16.7149 6.15857 16.6135C5.98839 16.5121 5.75756 16.4551 5.51687 16.4551C5.27619 16.4551 5.04536 16.5121 4.87518 16.6135C4.70499 16.7149 4.60938 16.8525 4.60938 16.9959Z" fill="#FFB59E"/>
<path d="M15.3896 16.9959C15.3896 17.1393 15.4853 17.2769 15.6554 17.3783C15.8256 17.4798 16.0565 17.5367 16.2971 17.5367C16.5378 17.5367 16.7687 17.4798 16.9388 17.3783C17.109 17.2769 17.2046 17.1393 17.2046 16.9959C17.2046 16.8525 17.109 16.7149 16.9388 16.6135C16.7687 16.5121 16.5378 16.4551 16.2971 16.4551C16.0565 16.4551 15.8256 16.5121 15.6554 16.6135C15.4853 16.7149 15.3896 16.8525 15.3896 16.9959Z" fill="#FFB59E"/>
<path d="M24.6147 44.5563C23.8812 42.6184 22.5752 40.9498 20.8703 39.7722C19.1655 38.5946 17.1425 37.9639 15.0705 37.9639C12.9985 37.9639 10.9756 38.5946 9.27073 39.7722C7.56588 40.9498 6.25987 42.6184 5.52637 44.5563H24.6147Z" fill="#00F5BC"/>
<path d="M13.6022 40.4895C14.8556 40.4867 16.0945 40.7585 17.2315 41.2859C18.3686 41.8133 19.3764 42.5834 20.1839 43.542H21.678C21.0574 41.9023 19.9523 40.4904 18.5097 39.494C17.0672 38.4976 15.3554 37.9639 13.6022 37.9639C11.849 37.9639 10.1372 38.4976 8.69468 39.494C7.2521 40.4904 6.14702 41.9023 5.52637 43.542H7.01137C7.8215 42.5841 8.83103 41.8146 9.96943 41.2874C11.1078 40.7602 12.3476 40.4879 13.6022 40.4895Z" fill="#00DBA8"/>
<path d="M21.678 43.542C21.0574 41.9023 19.9523 40.4904 18.5097 39.494C17.0672 38.4976 15.3554 37.9639 13.6022 37.9639C11.849 37.9639 10.1372 38.4976 8.69468 39.494C7.2521 40.4904 6.14702 41.9023 5.52637 43.542H21.678Z" stroke="#45413C" stroke-width="0.5" stroke-linecap="round" stroke-linejoin="round"/>
<path d="M11.897 35.0352H15.307V40.9018H11.897V35.0352Z" fill="#FFCEBF"/>
<path d="M11.897 35.0352H15.307V39.2885H11.897V35.0352Z" fill="#FFB59E"/>
<path d="M11.897 35.0352H15.307V40.9018H11.897V35.0352Z" stroke="#45413C" stroke-width="0.5" stroke-linecap="round" stroke-linejoin="round"/>
<path d="M13.6023 21.7891C13.0425 21.7891 12.4851 21.8599 11.9431 21.9999C10.5322 22.4501 9.04531 22.6121 7.5706 22.4766C7.51257 22.8577 7.5322 23.2466 7.62829 23.6199C7.72438 23.9933 7.89496 24.3433 8.12977 24.6491C7.36457 25.7569 6.95235 27.0702 6.94727 28.4166V31.8999H20.2573V28.4166C20.25 26.6563 19.5456 24.9706 18.2984 23.7285C17.0511 22.4864 15.3625 21.789 13.6023 21.7891Z" fill="#A86C4D"/>
<path d="M13.602 21.7891C13.0423 21.7891 12.4848 21.8599 11.9428 21.9999C10.532 22.4501 9.04506 22.6121 7.57035 22.4766C7.51305 22.8542 7.53222 23.2394 7.6267 23.6095C7.72118 23.9795 7.88905 24.3268 8.12035 24.6307C9.4141 24.6382 10.702 24.456 11.9428 24.0899C12.9238 23.8374 13.9494 23.8121 14.9415 24.0159C15.9337 24.2198 16.8663 24.6475 17.6681 25.2663C18.47 25.8852 19.12 26.6789 19.5686 27.587C20.0173 28.4951 20.2527 29.4937 20.257 30.5066V28.4166C20.2497 26.6563 19.5454 24.9706 18.2981 23.7285C17.0508 22.4864 15.3623 21.789 13.602 21.7891Z" fill="#DE926A"/>
<path d="M13.6023 21.7891C13.0425 21.7891 12.4851 21.8599 11.9431 21.9999C10.5322 22.4501 9.04531 22.6121 7.5706 22.4766C7.51257 22.8577 7.5322 23.2466 7.62829 23.6199C7.72438 23.9933 7.89496 24.3433 8.12977 24.6491C7.36457 25.7569 6.95235 27.0702 6.94727 28.4166V31.8999H20.2573V28.4166C20.25 26.6563 19.5456 24.9706 18.2984 23.7285C17.0511 22.4864 15.3625 21.789 13.6023 21.7891V21.7891Z" stroke="#45413C" stroke-width="0.5" stroke-linecap="round" stroke-linejoin="round"/>
<path d="M7.17615 30.3692C6.93802 30.4349 6.72432 30.5688 6.56142 30.7545C6.39852 30.9402 6.29356 31.1696 6.25949 31.4142C6.24559 31.5842 6.26699 31.7553 6.32234 31.9167C6.3777 32.078 6.46582 32.2262 6.58116 32.3519C6.69651 32.4775 6.83659 32.578 6.99262 32.647C7.14864 32.7159 7.31724 32.7519 7.48782 32.7526H7.56115C7.7737 34.2103 8.50388 35.5428 9.61816 36.5064C10.7324 37.47 12.1564 38.0003 13.6295 38.0003C15.1026 38.0003 16.5265 37.47 17.6408 36.5064C18.7551 35.5428 19.4853 34.2103 19.6978 32.7526H19.7712C20.0794 32.7739 20.384 32.6756 20.6216 32.4781C20.8592 32.2806 21.0115 31.9992 21.0469 31.6922C21.0823 31.3853 20.9981 31.0766 20.8117 30.8302C20.6253 30.5837 20.3511 30.4187 20.0462 30.3692C17.2962 29.8284 15.7928 26.9226 15.7562 26.8584C15.6828 26.9409 13.4278 30.4517 7.17615 30.3692Z" fill="#FFCEBF" stroke="#45413C" stroke-width="0.5" stroke-linecap="round" stroke-linejoin="round"/>
<path d="M10.3755 31.7718C10.3755 31.8934 10.4238 32.0099 10.5097 32.0959C10.5957 32.1819 10.7123 32.2301 10.8338 32.2301C10.9554 32.2301 11.072 32.1819 11.1579 32.0959C11.2439 32.0099 11.2922 31.8934 11.2922 31.7718C11.2922 31.6503 11.2439 31.5337 11.1579 31.4477C11.072 31.3618 10.9554 31.3135 10.8338 31.3135C10.7123 31.3135 10.5957 31.3618 10.5097 31.4477C10.4238 31.5337 10.3755 31.6503 10.3755 31.7718Z" fill="#45413C" stroke="#45413C" stroke-width="0.5" stroke-linecap="round" stroke-linejoin="round"/>
<path d="M16.9954 31.8551C16.9927 31.9979 16.9347 32.1341 16.8337 32.2351C16.7327 32.3361 16.5966 32.394 16.4538 32.3968C16.3101 32.3968 16.1723 32.3397 16.0708 32.2382C15.9692 32.1366 15.9121 31.9988 15.9121 31.8551C15.9121 31.7115 15.9692 31.5737 16.0708 31.4721C16.1723 31.3705 16.3101 31.3135 16.4538 31.3135C16.5974 31.3135 16.7352 31.3705 16.8368 31.4721C16.9384 31.5737 16.9954 31.7115 16.9954 31.8551Z" fill="#45413C" stroke="#45413C" stroke-width="0.5" stroke-linecap="round" stroke-linejoin="round"/>
<path d="M9.01855 33.7149C9.01855 33.8097 9.08133 33.9007 9.19307 33.9677C9.30481 34.0348 9.45636 34.0724 9.61439 34.0724C9.77241 34.0724 9.92397 34.0348 10.0357 33.9677C10.1474 33.9007 10.2102 33.8097 10.2102 33.7149C10.2102 33.6201 10.1474 33.5292 10.0357 33.4621C9.92397 33.3951 9.77241 33.3574 9.61439 33.3574C9.45636 33.3574 9.30481 33.3951 9.19307 33.4621C9.08133 33.5292 9.01855 33.6201 9.01855 33.7149Z" fill="#FFB59E"/>
<path d="M16.9844 33.7149C16.9844 33.8097 17.0472 33.9007 17.1589 33.9677C17.2706 34.0348 17.4222 34.0724 17.5802 34.0724C17.7382 34.0724 17.8898 34.0348 18.0015 33.9677C18.1133 33.9007 18.176 33.8097 18.176 33.7149C18.176 33.6201 18.1133 33.5292 18.0015 33.4621C17.8898 33.3951 17.7382 33.3574 17.5802 33.3574C17.4222 33.3574 17.2706 33.3951 17.1589 33.4621C17.0472 33.5292 16.9844 33.6201 16.9844 33.7149Z" fill="#FFB59E"/>
<path d="M12.0532 35.4111C12.4846 35.7731 13.041 35.9509 13.6024 35.9061C14.1637 35.9509 14.7202 35.7731 15.1516 35.4111" stroke="#45413C" stroke-width="0.5" stroke-linecap="round" stroke-linejoin="round"/>
<path d="M29.7536 21.7891C27.9934 21.789 26.3048 22.4864 25.0575 23.7285C23.8103 24.9706 23.1059 26.6563 23.0986 28.4166V31.8907H36.4086V28.4166C36.4014 26.6563 35.697 24.9706 34.4497 23.7285C33.2025 22.4864 31.5139 21.789 29.7536 21.7891Z" fill="#A86C4D"/>
<path d="M29.7536 21.7891C27.9934 21.789 26.3048 22.4864 25.0575 23.7285C23.8103 24.9706 23.1059 26.6563 23.0986 28.4166V30.5249C23.0986 28.7599 23.7998 27.0672 25.0478 25.8191C26.2959 24.571 27.9886 23.8699 29.7536 23.8699C31.5187 23.8699 33.2114 24.571 34.4594 25.8191C35.7075 27.0672 36.4086 28.7599 36.4086 30.5249V28.4166C36.4014 26.6563 35.697 24.9706 34.4497 23.7285C33.2025 22.4864 31.5139 21.789 29.7536 21.7891Z" fill="#DE926A"/>
<path d="M37.8294 43.542C37.2087 41.9023 36.1037 40.4904 34.6611 39.494C33.2185 38.4976 31.5068 37.9639 29.7536 37.9639C28.0003 37.9639 26.2886 38.4976 24.846 39.494C23.4035 40.4904 22.2984 41.9023 21.6777 43.542H37.8294Z" fill="#FFAA54"/>
<path d="M31.2219 40.9488C32.7046 40.9468 34.1698 41.2686 35.5152 41.8917C36.8606 42.5148 38.0536 43.4242 39.0111 44.5563H40.7661C40.0326 42.6184 38.7266 40.9498 37.0217 39.7722C35.3168 38.5946 33.2939 37.9639 31.2219 37.9639C29.1499 37.9639 27.127 38.5946 25.4221 39.7722C23.7172 40.9498 22.4112 42.6184 21.6777 44.5563H23.4436C24.3979 43.4233 25.5888 42.5132 26.9327 41.8899C28.2765 41.2667 29.7406 40.9454 31.2219 40.9488Z" fill="#FF8A14"/>
<path d="M37.8294 43.542C37.2087 41.9023 36.1037 40.4904 34.6611 39.494C33.2185 38.4976 31.5068 37.9639 29.7536 37.9639C28.0003 37.9639 26.2886 38.4976 24.846 39.494C23.4035 40.4904 22.2984 41.9023 21.6777 43.542H37.8294Z" stroke="#45413C" stroke-width="0.5" stroke-linecap="round" stroke-linejoin="round"/>
<path d="M28.0488 35.0352H31.4588V40.9018H28.0488V35.0352Z" fill="#FFCEBF"/>
<path d="M28.0488 35.0352H31.4588V39.2885H28.0488V35.0352Z" fill="#FFB59E"/>
<path d="M28.0488 35.0352H31.4588V40.9018H28.0488V35.0352Z" stroke="#45413C" stroke-width="0.5" stroke-linecap="round" stroke-linejoin="round"/>
<path d="M29.7536 21.7891C27.9934 21.789 26.3048 22.4864 25.0575 23.7285C23.8103 24.9706 23.1059 26.6563 23.0986 28.4166V31.8907H36.4086V28.4166C36.4014 26.6563 35.697 24.9706 34.4497 23.7285C33.2025 22.4864 31.5139 21.789 29.7536 21.7891V21.7891Z" stroke="#45413C" stroke-width="0.5" stroke-linecap="round" stroke-linejoin="round"/>
<path d="M23.3368 30.3692C23.0318 30.4187 22.7577 30.5837 22.5713 30.8302C22.3849 31.0766 22.3006 31.3853 22.336 31.6922C22.3715 31.9992 22.5238 32.2806 22.7614 32.4781C22.999 32.6756 23.3036 32.7739 23.6118 32.7526H23.6852C23.8977 34.2103 24.6279 35.5428 25.7422 36.5064C26.8564 37.47 28.2804 38.0003 29.7535 38.0003C31.2266 38.0003 32.6505 37.47 33.7648 36.5064C34.8791 35.5428 35.6093 34.2103 35.8218 32.7526H35.8952C36.0657 32.7519 36.2343 32.7159 36.3904 32.647C36.5464 32.578 36.6865 32.4775 36.8018 32.3519C36.9172 32.2262 37.0053 32.078 37.0606 31.9167C37.116 31.7553 37.1374 31.5842 37.1235 31.4142C37.0894 31.1696 36.9845 30.9402 36.8216 30.7545C36.6587 30.5688 36.445 30.4349 36.2068 30.3692C33.4568 29.8284 31.9443 26.9226 31.9077 26.8584C31.8435 26.9409 29.6068 30.4517 23.3368 30.3692Z" fill="#FFCEBF" stroke="#45413C" stroke-width="0.5" stroke-linecap="round" stroke-linejoin="round"/>
<path d="M26.5269 31.8551C26.5296 31.9979 26.5876 32.1341 26.6886 32.2351C26.7896 32.3361 26.9257 32.394 27.0685 32.3968C27.2122 32.3968 27.35 32.3397 27.4515 32.2382C27.5531 32.1366 27.6102 31.9988 27.6102 31.8551C27.6102 31.7115 27.5531 31.5737 27.4515 31.4721C27.35 31.3705 27.2122 31.3135 27.0685 31.3135C26.9249 31.3135 26.7871 31.3705 26.6855 31.4721C26.5839 31.5737 26.5269 31.7115 26.5269 31.8551Z" fill="#45413C" stroke="#45413C" stroke-width="0.5" stroke-linecap="round" stroke-linejoin="round"/>
<path d="M32.9806 31.7718C32.9806 31.8934 32.9323 32.0099 32.8464 32.0959C32.7604 32.1819 32.6439 32.2301 32.5223 32.2301C32.4007 32.2301 32.2842 32.1819 32.1982 32.0959C32.1123 32.0099 32.064 31.8934 32.064 31.7718C32.064 31.6503 32.1123 31.5337 32.1982 31.4477C32.2842 31.3618 32.4007 31.3135 32.5223 31.3135C32.6439 31.3135 32.7604 31.3618 32.8464 31.4477C32.9323 31.5337 32.9806 31.6503 32.9806 31.7718Z" fill="#45413C" stroke="#45413C" stroke-width="0.5" stroke-linecap="round" stroke-linejoin="round"/>
<path d="M25.1797 33.7149C25.1797 33.8097 25.2425 33.9007 25.3542 33.9677C25.4659 34.0348 25.6175 34.0724 25.7755 34.0724C25.9335 34.0724 26.0851 34.0348 26.1968 33.9677C26.3086 33.9007 26.3714 33.8097 26.3714 33.7149C26.3714 33.6201 26.3086 33.5292 26.1968 33.4621C26.0851 33.3951 25.9335 33.3574 25.7755 33.3574C25.6175 33.3574 25.4659 33.3951 25.3542 33.4621C25.2425 33.5292 25.1797 33.6201 25.1797 33.7149Z" fill="#FFB59E"/>
<path d="M33.1455 33.7799C33.1455 33.892 33.2197 33.9994 33.3518 34.0787C33.4838 34.1579 33.6629 34.2024 33.8497 34.2024C34.0364 34.2024 34.2155 34.1579 34.3476 34.0787C34.4797 33.9994 34.5538 33.892 34.5538 33.7799C34.5538 33.6679 34.4797 33.5604 34.3476 33.4812C34.2155 33.4019 34.0364 33.3574 33.8497 33.3574C33.6629 33.3574 33.4838 33.4019 33.3518 33.4812C33.2197 33.5604 33.1455 33.6679 33.1455 33.7799Z" fill="#FFB59E"/>
<path d="M28.2046 35.4111C28.636 35.7731 29.1924 35.9509 29.7538 35.9061C30.3151 35.9509 30.8715 35.7731 31.3029 35.4111" stroke="#45413C" stroke-width="0.5" stroke-linecap="round" stroke-linejoin="round"/>
</svg>
