<svg width="20" height="20" viewBox="0 0 20 20" fill="none" xmlns="http://www.w3.org/2000/svg">
<path d="M4.60837 0H15.3864C15.7601 0.0795308 16.1447 0.126255 16.5055 0.245054C18.6144 0.940948 19.9839 2.8139 19.9913 5.03529C20.0029 8.34742 20.0029 11.6597 19.9913 14.9722C19.9913 16.2089 19.5878 17.3119 18.7744 18.2458C17.7448 19.4279 16.4304 19.9995 14.8656 20C11.6457 20 8.42549 19.9988 5.20516 19.9965C4.86702 20.0013 4.52911 19.976 4.19544 19.921C2.35686 19.5859 1.07134 18.5401 0.36225 16.8183C0.176901 16.3709 0.117271 15.8679 0 15.3907V4.6093C0.0243487 4.47559 0.0496915 4.34188 0.0735433 4.20867C0.421382 2.35958 1.46192 1.06323 3.19962 0.355403C3.64436 0.174968 4.13779 0.113331 4.60837 0ZM12.8412 3.78119C12.8212 3.77172 12.8 3.76519 12.7781 3.76181C12.0109 3.76976 11.2412 3.7454 10.4769 3.79561C9.36731 3.86867 8.55088 4.58694 8.35062 5.66955C8.25969 6.16363 8.27857 6.6776 8.25124 7.18312C8.24627 7.2706 8.25124 7.35908 8.25124 7.46545H7.15803V10.005H8.41323V16.1771H10.7905V9.98857H12.6787C12.7528 9.13908 12.8243 8.31146 12.8989 7.45651H10.9609C10.9609 7.07476 10.944 6.71687 10.9664 6.36296C10.9853 6.06223 11.1552 5.90963 11.4558 5.87832C11.6104 5.86241 11.7679 5.87086 11.9239 5.87037C12.227 5.87037 12.5302 5.87037 12.8377 5.87037L12.8412 3.78119Z" fill="#7C7C7C"/>
</svg>

