<svg width="20" height="20" viewBox="0 0 20 20" fill="none" xmlns="http://www.w3.org/2000/svg">
<path d="M13.3151 19.9983H11.4413C11.3961 19.98 11.3488 19.9675 11.3005 19.9613C10.8014 19.9613 10.3028 19.9613 9.80369 19.9613C9.62897 19.9613 9.45426 19.9545 9.27955 19.9613C9.11527 19.967 8.95099 19.9853 8.78671 19.9983H6.1702C6.1191 19.9805 6.06682 19.9662 6.01374 19.9556C5.4484 19.8768 4.87472 19.8387 4.3193 19.7167C2.70673 19.3626 1.48792 18.4649 0.732226 16.9816C0.310309 16.1518 0.158545 15.251 0.0761431 14.3346C0.0568465 14.114 0.0239903 13.8939 0 13.6733V12.7757C0.0186239 12.7298 0.0312452 12.6818 0.0375501 12.6328C0.0375501 12.0679 0.0375501 11.503 0.0375501 10.9382C0.0375501 10.4662 0.0406793 9.99362 0.0375501 9.5216C0.0314279 9.46004 0.0191985 9.39924 0.00104288 9.3401V6.17783C0.0189523 6.12678 0.0330718 6.07448 0.0432865 6.02136C0.108999 5.51231 0.147592 4.99856 0.240946 4.49525C0.50171 3.10996 1.1797 1.97294 2.33123 1.14261C3.32109 0.432754 4.45385 0.145891 5.64867 0.0911265C8.32724 -0.0319636 11.0079 -0.0189246 13.6875 0.0624401C14.3628 0.0801996 15.0353 0.157694 15.697 0.294017C17.0999 0.59131 18.2457 1.30795 19.0128 2.55502C19.5954 3.50166 19.8587 4.55054 19.9093 5.64687C20.0345 8.33869 20.0136 11.0326 19.9453 13.726C19.9281 14.4358 19.8634 15.1405 19.6804 15.83C19.1933 17.6633 18.0934 18.939 16.279 19.5592C15.3825 19.8659 14.4474 19.9206 13.5107 19.9592C13.4446 19.9669 13.3791 19.98 13.3151 19.9983ZM18.1549 9.70989H18.181C18.181 8.96874 18.2045 8.22603 18.1747 7.48592C18.1403 6.61021 18.1226 5.72719 17.9865 4.864C17.7659 3.44533 16.934 2.51329 15.5322 2.11846C14.718 1.88949 13.8831 1.82325 13.0439 1.80917C11.9586 1.7904 10.8733 1.78466 9.78804 1.78466C8.73455 1.78466 7.68002 1.7784 6.62758 1.81595C5.96785 1.83942 5.29977 1.88636 4.6536 2.01415C3.22409 2.29736 2.35887 3.18976 2.02196 4.60895C1.8519 5.36426 1.76792 6.13641 1.77163 6.91063C1.75859 9.01829 1.74973 11.1259 1.77163 13.2331C1.77773 13.8765 1.8432 14.518 1.9672 15.1493C2.253 16.5857 3.09423 17.5485 4.54095 17.9173C5.27578 18.1051 6.02991 18.1551 6.78352 18.1619C8.67614 18.1781 10.5688 18.1901 12.4614 18.1854C13.3965 18.1828 14.3352 18.1708 15.2557 17.9668C16.6352 17.6607 17.5552 16.8392 17.8978 15.4633C18.0471 14.8379 18.1291 14.1983 18.1424 13.5554C18.181 12.2734 18.1549 10.9919 18.1549 9.70989Z" fill="#7C7C7C"/>
<path d="M0.0390149 10.9398C0.0390149 11.5047 0.0421441 12.0695 0.0390149 12.6344C0.0327101 12.6834 0.0200887 12.7315 0.00146484 12.7773V10.9398C0.0160676 10.9398 0.0270198 10.9398 0.0390149 10.9398Z" fill="#7C7C7C"/>
<path d="M9.80386 19.9629C10.303 19.9629 10.8015 19.9598 11.3006 19.9629C11.349 19.9691 11.3963 19.9816 11.4415 20H9.80177C9.80164 19.9876 9.80234 19.9752 9.80386 19.9629Z" fill="#7C7C7C"/>
<path d="M0.0389153 10.9397C0.0269201 10.9397 0.0149248 10.9397 0.00292969 10.9397V9.34009C0.0210853 9.39923 0.0333143 9.46003 0.0394365 9.52159C0.0420441 9.99361 0.0399583 10.4662 0.0389153 10.9397Z" fill="#7C7C7C"/>
<path d="M9.8036 19.9632C9.80282 19.9752 9.80282 19.9872 9.8036 19.9992H8.78662C8.9509 19.9861 9.11518 19.9679 9.27946 19.9621C9.45574 19.9559 9.62889 19.9632 9.8036 19.9632Z" fill="#7C7C7C"/>
<path d="M15.1266 9.99748C15.127 11.0108 14.8269 12.0015 14.2645 12.8443C13.7021 13.6872 12.9025 14.3445 11.9667 14.7331C11.031 15.1217 10.0011 15.2242 9.00705 15.0277C8.01306 14.8312 7.0996 14.3444 6.38208 13.629C5.66456 12.9135 5.17518 12.0014 4.97575 11.0079C4.77632 10.0145 4.8758 8.98414 5.26162 8.04716C5.64744 7.11019 6.30229 6.3086 7.14343 5.74365C7.98458 5.17871 8.97428 4.87576 9.98751 4.87308C12.8158 4.85639 15.1209 7.15546 15.1266 9.99748ZM10.0084 6.67562C9.35108 6.67398 8.70804 6.86718 8.16049 7.23084C7.61294 7.59449 7.18543 8.11227 6.93197 8.71878C6.67851 9.32529 6.61048 9.99332 6.73645 10.6385C6.86242 11.2836 7.17676 11.877 7.63975 12.3436C8.10274 12.8102 8.69362 13.1291 9.33774 13.26C9.98186 13.3909 10.6503 13.328 11.2587 13.0792C11.8671 12.8304 12.3881 12.4068 12.7559 11.8621C13.1238 11.3173 13.3219 10.6757 13.3253 10.0183C13.3287 9.58056 13.2455 9.14643 13.0803 8.74099C12.9152 8.33554 12.6714 7.96681 12.363 7.65606C12.0547 7.3453 11.6878 7.09868 11.2837 6.9304C10.8796 6.76213 10.4461 6.67553 10.0084 6.67562Z" fill="#7C7C7C"/>
<path d="M15.3251 3.47395C15.5614 3.47293 15.7927 3.54193 15.9898 3.67223C16.1869 3.80254 16.3409 3.98832 16.4326 4.20612C16.5242 4.42392 16.5492 4.66398 16.5046 4.89601C16.4599 5.12804 16.3475 5.34164 16.1816 5.50984C16.0156 5.67805 15.8036 5.79332 15.5722 5.84112C15.3408 5.88892 15.1004 5.8671 14.8814 5.77842C14.6624 5.68973 14.4746 5.53816 14.3417 5.34282C14.2087 5.14748 14.1366 4.91714 14.1345 4.68086C14.1317 4.52296 14.1605 4.3661 14.2191 4.21948C14.2778 4.07285 14.3651 3.93942 14.476 3.827C14.5869 3.71458 14.7191 3.62544 14.8649 3.56482C15.0108 3.50419 15.1672 3.4733 15.3251 3.47395Z" fill="#7C7C7C"/>
</svg>
