<svg width="20" height="20" viewBox="0 0 20 20" fill="none" xmlns="http://www.w3.org/2000/svg">
<path d="M15.2289 20H4.76402C4.59175 19.9752 4.4165 19.9553 4.2477 19.925C2.38102 19.5917 1.07334 18.5477 0.356954 16.796C0.175747 16.3529 0.115675 15.8597 0 15.3894V4.60862C0.0809228 4.23463 0.127094 3.84921 0.24823 3.48813C0.958166 1.36138 2.82982 0.0114235 5.08126 0.0054634C8.35392 -0.00182113 11.6266 -0.00182113 14.8992 0.0054634C15.6151 0.0054634 16.3161 0.120195 16.965 0.431112C18.9434 1.37926 19.972 2.96414 19.9874 5.15596C20.0108 8.38433 19.9954 11.6127 19.9904 14.8411C19.989 15.1531 19.965 15.4647 19.9184 15.7733C19.6355 17.6935 18.1635 19.3285 16.2799 19.8098C15.9353 19.8972 15.5794 19.9404 15.2289 20ZM10.7791 16.1712V15.9372C10.7791 14.6955 10.7702 13.4509 10.7846 12.2077C10.7867 11.8238 10.8273 11.4411 10.9057 11.0654C11.0318 10.4788 11.3987 10.1003 12.0128 10.0109C12.1803 9.98841 12.3497 9.98375 12.5182 9.99702C13.044 10.0338 13.4272 10.295 13.5821 10.7996C13.698 11.1582 13.7634 11.5311 13.7762 11.9077C13.8006 13.2487 13.7887 14.5897 13.7901 15.9308V16.1712H16.1781C16.1821 16.1081 16.1885 16.051 16.1885 15.9938C16.1885 14.5684 16.2064 13.1429 16.1811 11.718C16.1717 11.0941 16.1113 10.472 16.0004 9.85795C15.8688 9.14374 15.487 8.5666 14.8009 8.24724C14.0309 7.88964 13.2162 7.85835 12.3941 7.98748C11.702 8.09625 11.1058 8.38482 10.7116 9.00169C10.7002 9.02007 10.6744 9.02851 10.6242 9.06228V7.95123H8.41151V16.1712H10.7791ZM3.81529 7.94527V16.1657H6.6451V7.94527H3.81529ZM5.2158 3.75137C4.83107 3.75419 4.46278 3.90781 4.18998 4.17923C3.91719 4.45066 3.76163 4.81826 3.7567 5.20314C3.74827 5.99781 4.42841 6.67776 5.22225 6.66832C6.01609 6.65889 6.6739 5.98788 6.6744 5.20264C6.67489 4.4174 6.00914 3.74888 5.2158 3.75137Z" fill="#7C7C7C"/>
</svg>
